<mxfile host="Electron" agent="Mozilla/5.0 (X11; Linux x86_64) AppleWebKit/537.36 (KHTML, like Gecko) draw.io/28.1.2 Chrome/138.0.7204.243 Electron/37.4.0 Safari/537.36" version="28.1.2">
  <diagram name="Page-1" id="YDIsF-aM1EVe3fFCVyRq">
    <mxGraphModel dx="645" dy="477" grid="1" gridSize="10" guides="1" tooltips="1" connect="1" arrows="1" fold="1" page="1" pageScale="1" pageWidth="850" pageHeight="1100" math="0" shadow="0">
      <root>
        <mxCell id="0" />
        <mxCell id="1" parent="0" />
        <mxCell id="_ALioX4syXGBkIRUoHqO-18" value="" style="group" vertex="1" connectable="0" parent="1">
          <mxGeometry x="550" y="200" width="157.5" height="70" as="geometry" />
        </mxCell>
        <mxCell id="_ALioX4syXGBkIRUoHqO-3" value="&lt;b&gt;Модуль RGB-светодиода&lt;/b&gt;&amp;nbsp;" style="rounded=0;whiteSpace=wrap;html=1;" vertex="1" parent="_ALioX4syXGBkIRUoHqO-18">
          <mxGeometry width="157.5" height="40" as="geometry" />
        </mxCell>
        <mxCell id="_ALioX4syXGBkIRUoHqO-4" value="GND" style="rounded=0;whiteSpace=wrap;html=1;" vertex="1" parent="_ALioX4syXGBkIRUoHqO-18">
          <mxGeometry y="40" width="40" height="30" as="geometry" />
        </mxCell>
        <mxCell id="_ALioX4syXGBkIRUoHqO-15" value="R" style="rounded=0;whiteSpace=wrap;html=1;" vertex="1" parent="_ALioX4syXGBkIRUoHqO-18">
          <mxGeometry x="37.5" y="40" width="40" height="30" as="geometry" />
        </mxCell>
        <mxCell id="_ALioX4syXGBkIRUoHqO-16" value="G" style="rounded=0;whiteSpace=wrap;html=1;" vertex="1" parent="_ALioX4syXGBkIRUoHqO-18">
          <mxGeometry x="77.5" y="40" width="40" height="30" as="geometry" />
        </mxCell>
        <mxCell id="_ALioX4syXGBkIRUoHqO-17" value="B" style="rounded=0;whiteSpace=wrap;html=1;" vertex="1" parent="_ALioX4syXGBkIRUoHqO-18">
          <mxGeometry x="117.5" y="40" width="40" height="30" as="geometry" />
        </mxCell>
        <mxCell id="_ALioX4syXGBkIRUoHqO-1" value="&lt;b&gt;Модуль энкодера&lt;/b&gt;" style="rounded=0;whiteSpace=wrap;html=1;" vertex="1" parent="1">
          <mxGeometry x="300" y="210" width="160" height="30" as="geometry" />
        </mxCell>
        <mxCell id="_ALioX4syXGBkIRUoHqO-37" style="edgeStyle=orthogonalEdgeStyle;rounded=0;orthogonalLoop=1;jettySize=auto;html=1;entryX=0.5;entryY=0;entryDx=0;entryDy=0;shape=link;" edge="1" parent="1" source="_ALioX4syXGBkIRUoHqO-5" target="_ALioX4syXGBkIRUoHqO-32">
          <mxGeometry relative="1" as="geometry" />
        </mxCell>
        <mxCell id="_ALioX4syXGBkIRUoHqO-5" value="GND" style="rounded=0;whiteSpace=wrap;html=1;" vertex="1" parent="1">
          <mxGeometry x="420" y="240" width="40" height="30" as="geometry" />
        </mxCell>
        <mxCell id="_ALioX4syXGBkIRUoHqO-28" style="edgeStyle=orthogonalEdgeStyle;rounded=0;orthogonalLoop=1;jettySize=auto;html=1;entryX=0.5;entryY=0;entryDx=0;entryDy=0;endArrow=none;endFill=0;shape=link;" edge="1" parent="1" source="_ALioX4syXGBkIRUoHqO-19" target="_ALioX4syXGBkIRUoHqO-14">
          <mxGeometry relative="1" as="geometry">
            <Array as="points">
              <mxPoint x="320" y="340" />
              <mxPoint x="400" y="340" />
            </Array>
          </mxGeometry>
        </mxCell>
        <mxCell id="_ALioX4syXGBkIRUoHqO-19" value="5V" style="rounded=0;whiteSpace=wrap;html=1;" vertex="1" parent="1">
          <mxGeometry x="300" y="240" width="40" height="30" as="geometry" />
        </mxCell>
        <mxCell id="_ALioX4syXGBkIRUoHqO-43" style="edgeStyle=orthogonalEdgeStyle;rounded=0;orthogonalLoop=1;jettySize=auto;html=1;entryX=0.5;entryY=0;entryDx=0;entryDy=0;shape=link;" edge="1" parent="1" source="_ALioX4syXGBkIRUoHqO-20" target="_ALioX4syXGBkIRUoHqO-13">
          <mxGeometry relative="1" as="geometry">
            <Array as="points">
              <mxPoint x="400" y="330" />
              <mxPoint x="480" y="330" />
            </Array>
          </mxGeometry>
        </mxCell>
        <mxCell id="_ALioX4syXGBkIRUoHqO-20" value="S1" style="rounded=0;whiteSpace=wrap;html=1;" vertex="1" parent="1">
          <mxGeometry x="380" y="240" width="40" height="30" as="geometry" />
        </mxCell>
        <mxCell id="_ALioX4syXGBkIRUoHqO-44" style="edgeStyle=orthogonalEdgeStyle;rounded=0;orthogonalLoop=1;jettySize=auto;html=1;entryX=0.5;entryY=0;entryDx=0;entryDy=0;shape=link;" edge="1" parent="1" source="_ALioX4syXGBkIRUoHqO-21" target="_ALioX4syXGBkIRUoHqO-12">
          <mxGeometry relative="1" as="geometry">
            <Array as="points">
              <mxPoint x="360" y="310" />
              <mxPoint x="520" y="310" />
            </Array>
          </mxGeometry>
        </mxCell>
        <mxCell id="_ALioX4syXGBkIRUoHqO-21" value="S2" style="rounded=0;whiteSpace=wrap;html=1;" vertex="1" parent="1">
          <mxGeometry x="340" y="240" width="40" height="30" as="geometry" />
        </mxCell>
        <mxCell id="_ALioX4syXGBkIRUoHqO-27" value="" style="group" vertex="1" connectable="0" parent="1">
          <mxGeometry x="380" y="350" width="280" height="90" as="geometry" />
        </mxCell>
        <mxCell id="_ALioX4syXGBkIRUoHqO-2" value="&lt;b&gt;Arduino Nano&lt;/b&gt;" style="rounded=0;whiteSpace=wrap;html=1;" vertex="1" parent="_ALioX4syXGBkIRUoHqO-27">
          <mxGeometry y="30" width="280" height="60" as="geometry" />
        </mxCell>
        <mxCell id="_ALioX4syXGBkIRUoHqO-6" value="GND" style="rounded=0;whiteSpace=wrap;html=1;" vertex="1" parent="_ALioX4syXGBkIRUoHqO-27">
          <mxGeometry x="40" width="40" height="30" as="geometry" />
        </mxCell>
        <mxCell id="_ALioX4syXGBkIRUoHqO-8" value="PD6 (D6)" style="rounded=0;whiteSpace=wrap;html=1;" vertex="1" parent="_ALioX4syXGBkIRUoHqO-27">
          <mxGeometry x="200" width="40" height="30" as="geometry" />
        </mxCell>
        <mxCell id="_ALioX4syXGBkIRUoHqO-9" value="PB2 (D9)" style="rounded=0;whiteSpace=wrap;html=1;" vertex="1" parent="_ALioX4syXGBkIRUoHqO-27">
          <mxGeometry x="240" width="40" height="30" as="geometry" />
        </mxCell>
        <mxCell id="_ALioX4syXGBkIRUoHqO-11" value="PD5 (D5)" style="rounded=0;whiteSpace=wrap;html=1;" vertex="1" parent="_ALioX4syXGBkIRUoHqO-27">
          <mxGeometry x="160" width="40" height="30" as="geometry" />
        </mxCell>
        <mxCell id="_ALioX4syXGBkIRUoHqO-12" value="PD3 (D3)" style="rounded=0;whiteSpace=wrap;html=1;" vertex="1" parent="_ALioX4syXGBkIRUoHqO-27">
          <mxGeometry x="120" width="40" height="30" as="geometry" />
        </mxCell>
        <mxCell id="_ALioX4syXGBkIRUoHqO-13" value="PD2 (D2)" style="rounded=0;whiteSpace=wrap;html=1;" vertex="1" parent="_ALioX4syXGBkIRUoHqO-27">
          <mxGeometry x="80" width="40" height="30" as="geometry" />
        </mxCell>
        <mxCell id="_ALioX4syXGBkIRUoHqO-14" value="5V" style="rounded=0;whiteSpace=wrap;html=1;" vertex="1" parent="_ALioX4syXGBkIRUoHqO-27">
          <mxGeometry width="40" height="30" as="geometry" />
        </mxCell>
        <mxCell id="_ALioX4syXGBkIRUoHqO-38" style="edgeStyle=orthogonalEdgeStyle;rounded=0;orthogonalLoop=1;jettySize=auto;html=1;entryX=0.5;entryY=0;entryDx=0;entryDy=0;shape=link;" edge="1" parent="1" source="_ALioX4syXGBkIRUoHqO-32" target="_ALioX4syXGBkIRUoHqO-6">
          <mxGeometry relative="1" as="geometry" />
        </mxCell>
        <mxCell id="_ALioX4syXGBkIRUoHqO-32" value="" style="ellipse;whiteSpace=wrap;html=1;gradientColor=none;fillColor=#000000;" vertex="1" parent="1">
          <mxGeometry x="432.5" y="280" width="15" height="15" as="geometry" />
        </mxCell>
        <mxCell id="_ALioX4syXGBkIRUoHqO-39" style="edgeStyle=orthogonalEdgeStyle;rounded=0;orthogonalLoop=1;jettySize=auto;html=1;entryX=1;entryY=0.5;entryDx=0;entryDy=0;shape=link;" edge="1" parent="1" source="_ALioX4syXGBkIRUoHqO-4" target="_ALioX4syXGBkIRUoHqO-32">
          <mxGeometry relative="1" as="geometry">
            <Array as="points">
              <mxPoint x="570" y="288" />
              <mxPoint x="499" y="288" />
            </Array>
          </mxGeometry>
        </mxCell>
        <mxCell id="_ALioX4syXGBkIRUoHqO-40" style="edgeStyle=orthogonalEdgeStyle;rounded=0;orthogonalLoop=1;jettySize=auto;html=1;entryX=0.5;entryY=0;entryDx=0;entryDy=0;shape=link;" edge="1" parent="1" source="_ALioX4syXGBkIRUoHqO-17" target="_ALioX4syXGBkIRUoHqO-9">
          <mxGeometry relative="1" as="geometry">
            <Array as="points">
              <mxPoint x="688" y="330" />
              <mxPoint x="640" y="330" />
            </Array>
          </mxGeometry>
        </mxCell>
        <mxCell id="_ALioX4syXGBkIRUoHqO-41" style="edgeStyle=orthogonalEdgeStyle;rounded=0;orthogonalLoop=1;jettySize=auto;html=1;entryX=0.5;entryY=0;entryDx=0;entryDy=0;shape=link;" edge="1" parent="1" source="_ALioX4syXGBkIRUoHqO-16" target="_ALioX4syXGBkIRUoHqO-11">
          <mxGeometry relative="1" as="geometry">
            <Array as="points">
              <mxPoint x="648" y="310" />
              <mxPoint x="560" y="310" />
            </Array>
          </mxGeometry>
        </mxCell>
        <mxCell id="_ALioX4syXGBkIRUoHqO-42" style="edgeStyle=orthogonalEdgeStyle;rounded=0;orthogonalLoop=1;jettySize=auto;html=1;entryX=0.5;entryY=0;entryDx=0;entryDy=0;shape=link;" edge="1" parent="1" source="_ALioX4syXGBkIRUoHqO-15" target="_ALioX4syXGBkIRUoHqO-8">
          <mxGeometry relative="1" as="geometry">
            <Array as="points">
              <mxPoint x="608" y="330" />
              <mxPoint x="600" y="330" />
            </Array>
          </mxGeometry>
        </mxCell>
      </root>
    </mxGraphModel>
  </diagram>
</mxfile>
